<svg xmlns="http://www.w3.org/2000/svg" fill="none" viewBox="0 0 24 24" stroke-width="2" class="w-6 h-6">
  <defs>
    <linearGradient id="iconGradient-ai-textbook" x1="0%" y1="0%" x2="100%" y2="0%">
      <stop offset="0%" stop-color="#ffedd5"/>
      <stop offset="20%" stop-color="#fb923c"/>
      <stop offset="40%" stop-color="#f472b6"/>
      <stop offset="60%" stop-color="#93c5fd"/>
      <stop offset="80%" stop-color="#fb923c"/>
      <stop offset="100%" stop-color="#ffedd5"/>
      <animate attributeName="x1" from="-100%" to="200%" dur="4s" repeatCount="indefinite" />
      <animate attributeName="x2" from="0%" to="300%" dur="4s" repeatCount="indefinite" />
    </linearGradient>
  </defs>
  <path stroke-linecap="round" stroke-linejoin="round" stroke="url(#iconGradient-ai-textbook)" d="M12 10.5v6m0 0l-3-3m3 3l3-3m2.25 3.375a4.5 4.5 0 11-9 0 4.5 4.5 0 019 0zM19.5 14.25v-2.625a3.375 3.375 0 00-3.375-3.375h-1.5A1.125 1.125 0 0113.5 7.125v-1.5a3.375 3.375 0 00-3.375-3.375H8.25m3.75 9v6m0 0l-3-3m3 3l3-3m2.25 3.375a4.5 4.5 0 11-9 0 4.5 4.5 0 019 0zM19.5 14.25v-2.625a3.375 3.375 0 00-3.375-3.375h-1.5A1.125 1.125 0 0113.5 7.125v-1.5a3.375 3.375 0 00-3.375-3.375H8.25m-3.75 9.375v4.562a2.25 2.25 0 01-2.25 2.25H2.25" />
</svg>